<svg width="110" height="25" viewBox="0 0 110 25" fill="none" xmlns="http://www.w3.org/2000/svg">
<path d="M4.28111 18.553C3.14975 18.0458 2.33267 17.2848 1.70413 16.3337C1.0756 15.3826 0.761339 14.3046 0.698486 13.0364H3.65258C3.71543 14.1144 4.21826 15.0021 4.97249 15.6996C5.72673 16.3971 6.85809 16.7142 8.11515 16.7142C9.2465 16.7142 10.1264 16.4605 10.8178 16.0166C11.5092 15.5094 11.8863 14.8753 11.8863 13.9875C11.8863 13.3534 11.6978 12.8462 11.3207 12.4657C10.9435 12.0853 10.4407 11.8316 9.81218 11.6414C9.18365 11.4512 8.24085 11.2609 7.04665 11.0073H6.92094C5.78958 10.8171 4.78393 10.5634 3.96684 10.183C3.14975 9.80251 2.45837 9.29523 1.89269 8.59773C1.38987 7.90022 1.13846 6.94908 1.13846 5.80771C1.13846 4.72975 1.38987 3.7786 1.95555 2.95428C2.52123 2.12995 3.27546 1.49586 4.28111 0.988581C5.28676 0.544714 6.41812 0.291077 7.67518 0.291077C8.99509 0.291077 10.1893 0.544715 11.1949 1.05199C12.2635 1.55927 13.0805 2.19336 13.6462 3.0811C14.2747 3.96883 14.589 4.98338 14.589 6.06135H11.6349C11.5092 5.1102 11.0692 4.34929 10.3779 3.7786C9.68647 3.20792 8.74368 2.89087 7.67518 2.89087C6.60667 2.89087 5.72673 3.14451 5.0982 3.58837C4.46967 4.03224 4.15541 4.72975 4.15541 5.55407C4.15541 6.18817 4.34396 6.63203 4.72108 7.01249C5.0982 7.32954 5.60102 7.64659 6.22955 7.83682C6.85809 8.02704 7.73803 8.21727 8.93224 8.47091C10.1264 8.66114 11.1321 8.97819 12.012 9.29523C12.892 9.61228 13.5834 10.183 14.149 10.8805C14.7147 11.578 14.9661 12.5291 14.9661 13.6705C14.9661 14.7485 14.6519 15.6996 14.0862 16.5873C13.5205 17.4751 12.7034 18.1092 11.6349 18.6164C10.5664 19.1237 9.43506 19.3139 8.11515 19.3139C6.66953 19.3774 5.34961 19.1237 4.28111 18.553Z" fill="#E60000"/>
<path d="M27.851 6.25158C28.7938 6.82226 29.5481 7.58318 30.1137 8.66114C30.6794 9.7391 30.9308 10.9439 30.9308 12.4023C30.9308 13.7973 30.6794 15.0021 30.1137 16.0167C29.5481 17.0946 28.7938 17.9189 27.851 18.4896C26.9082 19.0603 25.7769 19.3774 24.5827 19.3774C23.3885 19.3774 22.3828 19.1237 21.5657 18.6164C20.7486 18.1092 20.183 17.4117 19.743 16.5873L20.1201 15.9532V24.5769H17.2917V5.61748H19.743L20.3087 8.97819L19.6801 8.34409C20.183 7.51977 20.8115 6.82226 21.5657 6.25158C22.3828 5.7443 23.3256 5.49066 24.5198 5.49066C25.7769 5.42725 26.8454 5.7443 27.851 6.25158ZM22.0057 8.4075C21.3772 8.78796 20.9372 9.29524 20.6229 9.99274C20.3087 10.6902 20.1201 11.4512 20.1201 12.3389C20.1201 13.2266 20.3087 14.051 20.6229 14.7485C20.9372 15.446 21.44 15.9532 22.0057 16.3971C22.6342 16.7776 23.2628 16.9678 24.0798 16.9678C24.8341 16.9678 25.5255 16.7776 26.154 16.3971C26.7825 16.0167 27.2225 15.446 27.5368 14.8119C27.851 14.1144 28.0396 13.3534 28.0396 12.4657C28.0396 11.578 27.851 10.8171 27.5368 10.1196C27.2225 9.42206 26.7825 8.91478 26.154 8.53432C25.5255 8.15386 24.8341 7.96363 24.0798 7.96363C23.2628 7.83681 22.5714 8.02704 22.0057 8.4075Z" fill="#E60000"/>
<path d="M36.0219 18.4896C34.9534 17.9189 34.1363 17.0946 33.5707 16.0167C33.005 14.9387 32.6907 13.7339 32.6907 12.4023C32.6907 11.0073 33.005 9.80252 33.5707 8.72456C34.1363 7.64659 34.9534 6.88568 36.0219 6.31499C37.0904 5.74431 38.2846 5.42726 39.6046 5.42726C40.9873 5.42726 42.1815 5.74431 43.1872 6.31499C44.2557 6.88568 45.0728 7.71 45.6385 8.72456C46.2041 9.80252 46.5184 11.0073 46.5184 12.4023C46.5184 13.7973 46.2041 15.0021 45.6385 16.0801C45.0728 17.158 44.2557 17.9189 43.1872 18.553C42.1187 19.1237 40.9245 19.4408 39.6046 19.4408C38.2218 19.3774 37.0276 19.0603 36.0219 18.4896ZM41.6787 16.3337C42.3072 15.9532 42.7472 15.446 43.0615 14.7485C43.3757 14.051 43.5643 13.29 43.5643 12.4023C43.5643 11.5146 43.3757 10.7537 43.0615 10.0562C42.7472 9.35865 42.3072 8.85138 41.6787 8.47092C41.0502 8.09046 40.3588 7.90023 39.6046 7.90023C38.8503 7.90023 38.0961 8.09046 37.5304 8.47092C36.9019 8.85138 36.4619 9.35865 36.1476 10.0562C35.8334 10.7537 35.6448 11.5146 35.6448 12.4023C35.6448 13.29 35.8334 14.051 36.1476 14.7485C36.4619 15.446 36.9647 15.9532 37.5304 16.3337C38.1589 16.7142 38.8503 16.9044 39.6046 16.9044C40.3588 16.9044 41.113 16.7142 41.6787 16.3337Z" fill="#E60000"/>
<path d="M51.2952 5.61747L51.7981 8.97818L51.2324 8.34408C51.6095 7.51976 52.1752 6.82225 52.8037 6.37838C53.4322 5.87111 54.375 5.68088 55.5693 5.68088H56.1978V8.34408H54.9407C53.7465 8.34408 52.9294 8.72454 52.3637 9.48545C51.8609 10.2464 51.5466 11.2609 51.5466 12.4657V19.3139H48.7183V5.61747H51.2952Z" fill="#E60000"/>
<path d="M58.0834 1.7495H60.9118V5.55407H64.1801V8.02705H60.9118V15.1289C60.9118 15.6996 61.0375 16.0801 61.226 16.2703C61.4146 16.5239 61.7917 16.5873 62.2945 16.5873H64.4944V19.1237H61.7288C60.4718 19.1237 59.529 18.8067 58.9633 18.236C58.3976 17.6653 58.0834 16.7142 58.0834 15.446V1.7495Z" fill="#E60000"/>
<path d="M69.2084 18.553C68.077 18.0458 67.2599 17.2848 66.6314 16.3337C66.0029 15.3826 65.6886 14.3046 65.6257 13.0364H68.5798C68.6427 14.1144 69.1455 15.0021 69.8997 15.6996C70.654 16.3971 71.7853 16.7142 73.0424 16.7142C74.1738 16.7142 75.0537 16.4605 75.7451 16.0166C76.4365 15.5094 76.8136 14.8753 76.8136 13.9875C76.8136 13.3534 76.625 12.8462 76.2479 12.4657C75.8708 12.0853 75.368 11.8316 74.7394 11.6414C74.1109 11.4512 73.1681 11.2609 71.9739 11.0073H71.8482C70.7168 10.8171 69.7112 10.5634 68.8941 10.183C68.077 9.80251 67.3856 9.29523 66.82 8.59773C66.3171 7.90022 66.0657 6.94908 66.0657 5.80771C66.0657 4.72975 66.3171 3.7786 66.8828 2.95428C67.4485 2.12995 68.2027 1.49586 69.2084 0.988581C70.214 0.544714 71.3454 0.291077 72.6024 0.291077C73.9224 0.291077 75.1166 0.544715 76.1222 1.05199C77.1907 1.55927 78.0078 2.19336 78.5735 3.0811C79.202 3.96883 79.5163 4.98338 79.5163 6.06135H76.5622C76.4365 5.1102 75.9965 4.34929 75.3051 3.7786C74.6137 3.20792 73.6709 2.89087 72.6024 2.89087C71.5339 2.89087 70.654 3.14451 70.0255 3.58837C69.3969 4.03224 69.0827 4.72975 69.0827 5.55407C69.0827 6.18817 69.2712 6.63203 69.6483 7.01249C70.0255 7.32954 70.5283 7.64659 71.1568 7.83682C71.7853 8.02704 72.6653 8.21727 73.8595 8.47091C75.0537 8.66114 76.0594 8.97819 76.9393 9.29523C77.8193 9.61228 78.5106 10.183 79.0763 10.8805C79.642 11.578 79.8934 12.5291 79.8934 13.6705C79.8934 14.7485 79.5791 15.6996 79.0135 16.5873C78.4478 17.4751 77.6307 18.1092 76.5622 18.6164C75.4937 19.1237 74.3623 19.3139 73.0424 19.3139C71.5968 19.3774 70.3397 19.1237 69.2084 18.553Z" fill="#E60000"/>
<path d="M85.0474 18.4896C83.9789 17.9189 83.1618 17.0946 82.5961 16.0801C82.0304 15.0021 81.7161 13.7973 81.7161 12.4023C81.7161 11.0073 81.9676 9.73911 82.5332 8.72456C83.0989 7.71 83.8531 6.88568 84.8588 6.31499C85.8644 5.74431 86.9958 5.42726 88.3157 5.42726C89.6356 5.42726 90.767 5.6809 91.7726 6.18817C92.7783 6.69545 93.5325 7.45637 94.0982 8.47092C94.6639 9.48547 94.9781 10.6268 94.9781 11.895C94.9781 12.0853 94.9781 12.2121 94.9781 12.4023C94.9781 12.5925 94.9782 12.7828 94.9153 12.973H84.7331C84.7331 13.0364 84.7331 13.0364 84.7331 13.0364V13.0998C84.7959 13.8607 84.9217 14.5582 85.2359 15.1289C85.5502 15.6996 85.9902 16.1435 86.5558 16.4605C87.1215 16.7776 87.75 16.9678 88.5043 16.9678C89.3842 16.9678 90.1385 16.7776 90.7041 16.3337C91.3327 15.8898 91.7098 15.3192 91.8983 14.5582H94.7896C94.601 15.446 94.2868 16.2703 93.7211 16.9678C93.1554 17.6653 92.464 18.236 91.6469 18.6799C90.767 19.0603 89.8242 19.314 88.7557 19.314C87.3101 19.3774 86.053 19.0603 85.0474 18.4896ZM86.7444 8.15387C86.2416 8.40751 85.8016 8.78797 85.4873 9.29524C85.1731 9.80252 84.9216 10.3098 84.8588 10.9439H92.0869C91.9612 9.92934 91.5841 9.10501 90.9556 8.59774C90.327 8.02705 89.4471 7.77341 88.4414 7.77341C87.8129 7.71 87.2472 7.83682 86.7444 8.15387Z" fill="#E60000"/>
<path d="M100.069 18.4896C99.0007 17.9189 98.1837 17.0946 97.618 16.0801C97.0523 15.0021 96.738 13.7973 96.738 12.4023C96.738 11.0073 96.9894 9.73911 97.5551 8.72456C98.1208 7.71 98.875 6.88568 99.8807 6.31499C100.886 5.74431 102.018 5.42726 103.338 5.42726C104.658 5.42726 105.789 5.6809 106.795 6.18817C107.8 6.69545 108.554 7.45637 109.12 8.47092C109.686 9.48547 110 10.6268 110 11.895C110 12.0853 110 12.2121 110 12.4023C110 12.5925 110 12.7828 109.937 12.973H99.755C99.755 13.0364 99.755 13.0364 99.755 13.0364V13.0998C99.8178 13.8607 99.9435 14.5582 100.258 15.1289C100.572 15.6996 101.012 16.1435 101.578 16.4605C102.143 16.7776 102.772 16.9678 103.526 16.9678C104.406 16.9678 105.16 16.7776 105.726 16.3337C106.355 15.8898 106.732 15.3192 106.92 14.5582H109.811C109.623 15.446 109.309 16.2703 108.743 16.9678C108.177 17.6653 107.486 18.236 106.669 18.6799C105.789 19.0603 104.846 19.314 103.778 19.314C102.332 19.3774 101.138 19.0603 100.069 18.4896ZM101.766 8.15387C101.263 8.40751 100.823 8.78797 100.509 9.29524C100.195 9.80252 99.9435 10.3098 99.8807 10.9439H107.109C106.983 9.92934 106.606 9.10501 105.977 8.59774C105.349 8.02705 104.469 7.77341 103.463 7.77341C102.835 7.71 102.269 7.83682 101.766 8.15387Z" fill="#E60000"/>
</svg>
