<svg width="59" height="61" viewBox="0 0 59 61" fill="none" xmlns="http://www.w3.org/2000/svg">
    <path d="M29.5982 57.7027C45.3925 57.7027 58.1963 44.7855 58.1963 28.8514C58.1963 12.9172 45.3925 0 29.5982 0C13.8038 0 1 12.9172 1 28.8514C1 44.7855 13.8038 57.7027 29.5982 57.7027Z" fill="#FF0101"/>
    <path d="M29.5981 57.7027C45.3924 57.7027 58.1963 44.7855 58.1963 28.8514C58.1963 12.9172 45.3924 0 29.5981 0C13.8038 0 0.999939 12.9172 0.999939 28.8514C0.999939 44.7855 13.8038 57.7027 29.5981 57.7027Z" fill="#FF0101"/>
    <path d="M40.5346 29.422C40.8488 29.9293 41.4145 30.2463 42.043 30.2463C42.3573 30.2463 42.6716 30.1829 42.9858 29.9927L51.5967 24.7931C52.4767 24.2858 52.7281 23.1445 52.2252 22.3201C51.7224 21.4324 50.5911 21.1788 49.774 21.686L42.6087 25.9979L39.1518 19.2131C38.209 18.2619 37.1405 17.3108 36.072 16.4865L25.8269 11.2869C25.1356 10.9698 24.3813 11.0332 23.8156 11.5405L15.2676 19.3399C14.5134 20.0374 14.4505 21.1788 15.1419 21.8763C15.8333 22.6372 16.9646 22.7006 17.656 22.0031L25.387 15.028L30.7295 17.7546L21.5529 32.0852L0.622843 57.0686C-0.194248 58.0197 -0.131395 59.5415 0.874255 60.3659C1.81705 61.1902 3.32553 61.1268 4.14262 60.1122L24.4442 36.4605L33.1807 38.4896L27.2097 47.9376C26.5812 49.079 26.9583 50.474 28.0896 51.1081C29.0953 51.6788 30.4152 51.4251 31.1066 50.4106L38.7747 38.1725C39.2146 37.5384 39.2775 36.7141 39.0261 36.0166C38.7118 35.3191 38.1461 34.8118 37.3919 34.685L30.6666 33.0998L36.7634 23.4615L40.5346 29.422Z" fill="#020203"/>
    <path d="M41.9173 16.423C44.5555 16.423 46.6942 14.2654 46.6942 11.6039C46.6942 8.94239 44.5555 6.78479 41.9173 6.78479C39.2792 6.78479 37.1405 8.94239 37.1405 11.6039C37.1405 14.2654 39.2792 16.423 41.9173 16.423Z" fill="#020203"/>
</svg>
